<?xml version="1.0" encoding="utf-8"?>
<!-- Generator: Adobe Illustrator 23.0.5, SVG Export Plug-In . SVG Version: 6.00 Build 0)  -->
<svg version="1.0" id="Layer_1" xmlns="http://www.w3.org/2000/svg" xmlns:xlink="http://www.w3.org/1999/xlink" x="0px" y="0px"
	 viewBox="0 0 724.1307983 639.2376709" style="enable-background:new 0 0 724.1307983 639.2376709;" xml:space="preserve">
<style type="text/css">
	.st0{fill:#FE2A2A;}
	.st1{fill:#FE7F2A;}
	.st2{fill:#FEFEFE;}
</style>
<title>elmo-head-002</title>
<path d="M363.5867615,54.5682678c5.9478455-8.3167725,10.7590942-16.3153839,17.3123779-23.0313416
	c27.8582764-28.5500031,62.1793213-36.9962769,99.7456665-28.2412109
	c38.6581726,9.0094986,63.7829895,34.7128906,73.9915466,73.086731c4.7247314,18.2111053,4.2724609,37.3795166-1.3058472,55.3475342
	c-1.5872803,5.2653351-1.2528687,7.5700531,4.3474121,9.634201c10.2728271,3.7863617,20.2950439,8.34021,30.1717529,13.0935822
	c15.4310913,7.42659,31.2727051,13.0598145,48.4141235,15.2180023c12.472168,1.5702667,14.8389893,8.2298126,7.5914917,18.7844086
	c-0.3621216,0.4115906-0.7029419,0.8414001-1.0212402,1.2877502c-2.1511841,3.973114-8.8916016,6.4194946-7.4293823,10.6293945
	c1.2489014,3.5958557,7.0012207,5.6470032,10.7930298,8.3370972c18.8583374,13.2854919,36.3563232,28.4038696,52.2382202,45.1342773
	c3.4728394,3.504425,6.5134888,7.4121704,9.0568848,11.639801c6.1818237,10.9325256,2.8764038,17.5511169-10.0800171,19.855072
	c9.1028442,14.6404724,16.9779053,29.6013184,21.9838867,45.9471741
	c3.4370117,11.0132751,5.0205078,22.5210266,4.6859741,34.0532837c-0.2127686,6.9712219-3.2571411,9.8028564-9.6704712,8.0729065
	c-6.6235352-1.7865601-7.381897,0.9344177-7.7415771,6.73526c-0.7632446,12.3119202-2.1220093,24.6270142-4.0253296,36.817627
	c-2.2177124,14.2038574-2.2063599,27.9543457,5.1246338,40.789917c3.718689,6.5109863,1.5942993,9.6970825-5.0186768,12.050293
	c-8.0365601,2.8597412-16.239624,2.4849854-24.4263306,2.3309937c-4.6002808-0.0866089-6.6432495,1.3166504-8.0153809,5.9186401
	c-5.2295532,17.5396118-13.0855103,33.741333-26.2949829,46.8701477
	c-3.7911987,3.9841309-8.1611938,7.3740234-12.9627075,10.0557861c-6.4383545,3.3770752-12.8638306,5.5570068-18.8401489-2.147583
	c-9.5112915,18.7076416-21.0496826,34.9699707-36.8834229,47.7615967
	c-8.5775146,6.9294434-17.8435669,15.3129883-28.8619995,14.3380127
	c-12.5047607-1.1066895-20.3686523,5.2161865-29.3840332,10.9263916
	c-11.5647278,7.3249512-23.9411926,12.2131348-37.9673767,11.5059814c-3.0383301-0.1864014-6.0527344,0.6391602-8.572113,2.3475342
	c-33.5209045,22.3516846-69.9941406,22.9616699-107.6416931,14.4802246
	c-5.4453735-1.2266846-10.4183655-1.4556885-15.973999,0.4051514c-11.6716003,3.9093018-23.4503479,1.7458496-34.7200928-2.1687012
	c-7.468689-2.4882813-15.3236389-3.6147461-23.1906433-3.3258057
	c-31.7218628,0.4361572-60.0793152-10.9417725-86.8073273-27.0004883c-4.238739-2.5467529-8.1765442-5.5-13.174057-6.5134277
	c-30.1281128-6.1094971-50.7011261-24.8702393-65.8956909-50.4050293
	c-3.2207642-5.4125977-5.7624207-9.1949463-11.9303131-3.6186523c-1.137146,1.0280762-2.9768066,1.3514404-4.5467682,1.8156738
	c-6.5979309,1.9508057-13.6178741,4.6121826-19.6657562-0.288208c-6.1408081-4.9755859-2.8451996-11.7993164-1.1738129-17.6552734
	c4.6029968-16.1269836-3.5148315-29.3664246-8.9614105-43.6578064c-3.7568207,1.2097778-4.3112946,6.9177856-9.1844635,5.8676758
	c-3.8309059-0.8253784-5.7476845-4.0310059-8.548336-6.135376c-17.8166809-13.3874512-25.4997559-31.7487793-25.9813843-53.4941101
	c-0.0992889-4.4831848-1.370491-6.129425-6.1324387-6.1517639c-9.5973587-0.0450134-11.8003387-2.3994751-12.0475197-12.2993469
	c-0.3909988-15.6590576,2.8790016-30.5157776,10.6846008-44.2384338c1.0673409-1.8763733,2.0680962-3.7906494,3.2582588-5.9789124
	c-8.0068398-3.147583-15.4599991-6.5857544-21.8540001-11.9161987c-9.1901817-7.661499-9.61623-14.401001-0.0192413-21.128418
	c14.0651207-9.859436,20.5036964-24.5524292,27.5071678-39.8576965c-10.8372803-1.0358887-9.8112907-8.2397156-8.6837006-15.7773132
	c1.3580627-9.0782776,6.0172806-16.3592224,11.7762222-23.1253967
	c12.4540558-14.6322937,28.4074516-24.8399963,45.7261925-35.5718689
	c-10.6100006-6.1704712-14.9356384-15.2545776-15.0174255-26.6737061c-0.0365601-5.1040039,1.707077-7.7731934,6.990448-7.7775574
	c2.1912994-0.0018005,4.3814392-0.3940125,6.5736542-0.4111328c19.0943298-0.1492004,36.5503693-4.898407,52.7795563-15.6192627
	c10.6795044-7.0547638,22.6300964-12.3749237,34.4581604-17.4259949c6.467453-2.7618866,7.4640045-5.3911743,5.415863-12.0368958
	C157.3668823,76.2369385,187.965744,18.4901047,243.9516602,4.0947037
	c44.6098633-11.4703522,85.6239319,1.7724915,113.5004883,41.489769
	C359.3361206,48.2685699,361.1528931,50.9999084,363.5867615,54.5682678z"/>
<path class="st0" d="M712.612915,358.3117981c-4.3532715-0.4710999-6.8880005-3.4211121-9.5393066-6.1496887
	c-1.7185059-1.7685852-3.1531372-3.8613586-5.0472412-5.3999023c-3.092041-2.5118713-6.7874146-6.9342651-10.4295044-4.4194946
	c-2.9210815,2.0168457,0.895813,6.4263611,1.9621582,9.6171875c6.6152344,19.7940063,3.7678223,39.6076355,0.4987183,59.4394836
	c-2.5419312,15.4208984-6.1538696,30.8057861,0.1323853,46.2294922c1.4675293,3.600708-0.4463501,4.3893433-3.6937256,3.5079956
	c-5.4054565-1.46698-7.9674072-5.3519897-9.312439-10.4666138c-1.2504272-4.7550049-2.3499146-11.6474609-7.3803101-11.5968628
	c-4.6947632,0.0472412-4.4359741,7.296814-5.8267822,11.543335c-6.8442993,20.8981323-13.6473389,41.7893066-27.7406006,59.2854004
	c-0.9470215,1.3474121-2.0125122,2.6075134-3.1837158,3.7653503c-2.5999756,2.2419434-4.3319702,6.9438477-8.1539307,5.9226074
	c-3.4135132-0.9121094-2.6376953-5.5002441-3.3042603-8.5993347c-0.7680054-3.5702515-1.5648804-7.4121704-5.644165-8.3178711
	c-4.3862915-0.9738159-6.2874756,2.9424438-8.0496216,5.8348389c-3.9934082,6.5544128-7.6226807,13.3384705-11.2230835,20.1230164
	c-9.3889771,17.7857666-22.4515991,33.3723145-38.3217163,45.7264404
	c-2.8890991,2.2601318-5.5266724,5.3952637-10.0359497,5.0681152c-0.8262329-4.7558594,3.9981689-11.1931152-1.3102417-13.7095947
	c-5.5981445-2.6536865-8.90802,4.0239258-12.3063354,7.4729004c-12.4356079,12.4799805-27.1366272,22.4746094-43.3155823,29.4484863
	c-2.8213501,1.248291-5.2214966,3.5611572-8.5568848-0.1192627c-2.0911865-2.307373-5.0606689,0.6989746-7.3051147,1.9519043
	c-11.5056763,6.4233398-22.9920044,12.8323975-35.3294373,17.6156006
	c-26.3827209,10.2286377-53.0916443,9.7819824-80.0701599,2.8905029
	c-5.8458252-1.4932861-11.6806641-3.1320801-17.6176147-4.1207275c-2.7615356-0.4598389-7.1351318-3.2872314-7.519989,3.5375977
	c-0.1417236,2.5130615-4.1633911,1.1585693-6.3158875,0.8675537c-11.5666504-1.5639648-22.1749268-5.8990479-32.5067139-11.2207031
	c-7.6552429-3.9431152-15.4484863-7.9018555-24.6830139-8.5106201c0.2868652,6.0831299,6.4174194,6.59729,7.9430542,11.1824951
	c-6.8334045,1.7261963-13.1529846-0.1757813-19.2471008-2.0765381
	c-27.7118225-8.644043-51.4653015-23.1088867-68.2026215-47.5588379c-0.4234772-0.7064209-0.8909149-1.3856201-1.3995514-2.0334473
	c-1.7532501-1.9702148-3.0272522-5.4561768-6.1551056-4.512207c-2.973526,0.8973389-2.7408752,4.3399658-2.9077454,7.0662842
	c-0.6940765,11.3405762-0.8139038,11.5622559-10.9308929,6.1882324
	c-13.9977264-7.4353027-24.1569977-18.7979736-31.6375732-32.6134033
	c-4.8334503-8.9265137-9.1430054-18.1494141-14.2529144-26.9095459c-4.2153625-7.2264709-6.5627747-7.0451965-10.5788727,0.177002
	c-3.2207794,5.7921143-6.5977631,11.4162598-11.6962891,15.7734375c-1.4541168,1.2426758-3.2285156,2.7172852-5.1347504,1.4268799
	c-1.7185974-1.163208-0.3159943-3.0306396,0.0347137-4.4957275c5.8568268-24.4649963-4.9005737-45.122406-15.2567902-65.7812195
	c-1.6154633-3.2225342-4.2635193-7.4681396-8.6777649-6.2819214c-4.0941772,1.1001587-2.870163,5.9933472-3.8247681,9.2524414
	c-0.5882263,2.0083618-0.0591888,4.3616333-2.6308136,7.0337524c-9.0481758-14.9475098-18.6228065-28.916687-19.2294731-46.6737366
	c-0.2998199-8.7753601,0.128273-17.5736694,0.0138016-26.3587646c-0.0289383-2.2203674,1.2868881-5.6511536-2.0364075-6.2640686
	c-2.8914871-0.5333252-3.7435379,2.7961121-4.8783188,4.8419189c-1.3207779,2.3811035-2.1046829,5.0536499-3.2297134,7.5510559
	c-1.7654419,3.9190063-5.3501892,6.649231-9.0661316,5.4634399c-3.8570709-1.2309265-2.1161613-5.7976685-1.3557816-8.6905518
	c3.8730621-14.735321,10.9409409-28.0364685,18.8154984-40.9901428c3.0701599-5.0505371,7.2111969-9.6359863,8.4214096-15.6965027
	c-2.7744293-1.4686584-5.0387115-0.1585999-7.4047089,0.3999939c-4.8133698,1.1363525-9.6751862,2.2455444-14.6598892,1.5017395
	c-4.9070969-0.7322388-10.7733078-1.2258301-12.7533913-6.1863403c-2.0523415-5.1414185,4.0183487-6.9971924,6.8845787-9.8023376
	c6.5579987-6.4181824,12.5090027-13.1748352,15.5118866-21.9866943
	c4.9213104-14.4412842,11.7943497-27.7446899,21.8879242-39.2998962c1.2069969-1.3817749,2.6665459-2.8670349,2.2483788-5.6195374
	c-7.0114555,0.339386-11.2831688,5.9026489-16.8391685,8.8362122c-3.2653198,1.7240906-6.8897095,6.1533813-10.0389328,3.1416016
	c-2.2656326-2.1667786,1.6067429-6.2808533,3.3440933-9.1548157c8.8778687-14.6858215,21.8728142-25.2840576,35.9798546-34.4238586
	c14.7323914-9.5449524,30.0166931-18.2351379,44.9547424-27.4688721c2.0877228-1.2904968,6.0213928-2.3770142,4.600647-5.7208557
	c-1.2648468-2.9768982-4.9669952-1.7945251-7.4468994-1.2669373c-4.5441132,0.9667664-8.9591675,2.5603027-13.4043884,3.9672241
	c-7.8252716,2.4768066-14.5998077,0.6210632-20.5223236-4.8588562c-1.1938477-1.1046143-2.7583771-2.1821594-2.3722229-4.027771
	c0.4169922-1.9927673,2.3865356-1.961853,3.9626312-2.2667542c2.1419525-0.4843445,4.3069458-0.8605347,6.4867401-1.1271057
	c12.8405609-1.1587524,24.4721527-5.6531067,35.4834137-12.2167053c14.4059296-8.5325928,29.327713-16.1625671,44.679245-22.845871
	c5.1143494-2.2443237,8.3029022-1.9043274,11.6651764,3.0696716c16.5597076,24.4974823,39.7813416,38.9664459,68.8706665,43.579483
	c7.616333,1.2078552,8.3458862,3.8937988,6.0647888,10.5792847c-13.9480591,40.8795471-8.6384888,79.96875,14.448822,115.8367615
	c21.9684753,34.1298523,53.6056213,54.1387024,95.2327576,51.0776062
	c43.9429626-3.2311707,73.1641846-28.8349609,90.1030884-68.4111938
	c13.5142822-31.5747986,13.4115906-64.0462646,2.5617676-96.5535889c-3.2303772-9.6785278-3.1894836-9.9413757,6.8851929-11.648407
	c30.3516846-5.1425476,54.0579529-20.4848633,71.1187439-46.0269012c3.6973877-5.5386658,7.116272-5.9121094,12.8469849-3.5341949
	c15.2167969,6.3140717,30.3833618,12.7363434,44.9475098,20.4202118c7.9641113,4.2017365,15.8701172,7.2921295,25.0709839,5.8245087
	c2.5299072-0.5952148,5.1901855,0.1074524,7.0961914,1.8743591c-6.2995605,7.5214233-14.875,9.381134-23.7626953,10.644928
	c-4.3974609,0.6253052-11.4124756-1.509552-12.2056274,3.6152649c-0.7733765,4.9970703,6.5679932,5.4211426,10.5701294,7.1373901
	c33.1559448,14.2187195,61.111084,35.454895,84.9271851,62.3346252c1.5354614,1.7330017,4.5147705,3.5190125,3.4213257,6.0517578
	c-1.1107178,2.572876-4.3556519,1.1459045-6.6610107,1.4085999c-6.5172119,0.7425232-11.4021606-3.3649292-16.8463135-5.8085938
	c-1.9813843-0.8893738-4.1709595-2.2791443-6.0631714-0.3581543c-1.7772827,1.8042603-0.8412476,4.1525269-0.0471802,6.1896362
	c3.2663574,8.3793335,9.5287476,14.678894,15.1362305,21.3998718
	c13.8840942,16.6408691,24.4219971,35.0892029,30.5859375,55.9266052
	C711.8341064,351.8027649,713.3291016,354.8171387,712.612915,358.3117981z"/>
<path class="st1" d="M361.0452576,147.1457062c28.9156189-1.259491,51.2192383,11.7737732,69.7149963,32.6177826
	c38.7904358,43.7152405,38.109375,115.3871765-1.3457947,157.4352722
	c-33.407135,35.6026001-83.8652344,38.9364624-121.6015625,8.0343933
	c-52.2990112-42.8274231-55.4345398-129.1599426-6.3464355-174.7387238
	C318.8068848,154.3937073,337.4352417,147.0908966,361.0452576,147.1457062z"/>
<g>
	<path class="st2" d="M264.697052,10.7202225c-46.5062256,2.8962479-84.3459473,42.8800888-84.4015808,89.1837692
		c-0.0561218,46.7637024,33.0551147,84.9440613,79.2962341,91.7829895
		c6.6098938,0.9775085,10.4724121-0.8959961,14.0705872-6.6965027c17.7883606-28.676239,43.2369385-46.133194,77.0691223-50.2583923
		c5.6379089-0.6874542,8.2449951-3.3530731,9.5446777-8.3785553c3.2748413-12.2118225,4.1573792-24.9416962,2.598999-37.4886017
		C356.8444519,41.8713913,314.0032959,7.6494751,264.697052,10.7202225z"/>
	<path class="st2" d="M546.9753418,92.9417572c-4.0058594-50.931778-52.1194153-85.4261627-91.0200195-81.9677811
		c-35.7000122-2.0687866-63.5599976,18.6481857-81.0419617,45.849144
		c-4.0427246,5.9833069-5.4024658,13.3833008-3.7508545,20.4129333c3.7279358,16.8578033,3.9920349,33.7330017-0.4450684,50.4764557
		c-1.330658,5.0213623,0.020813,6.5610046,5.0683289,7.4298096c32.7215881,5.6318665,57.2875977,23.6109161,75.1406555,51.102951
		c3.0467224,4.6914673,6.1187744,6.5305481,11.843689,6.0198059
		C510.0556946,188.0464478,551.2857056,147.7427673,546.9753418,92.9417572z"/>
</g>
<g>
	<path d="M648.0792847,339.7945557c-2.4738159-4.3535156-7.300354-5.806366-11.4060059-3.0567627
		c-4.3920288,2.9413147,0.2752075,6.2342529,1.2654419,9.2608337c1.3690796,4.1843567,6.043335,7.7486267,2.2907715,12.7957458
		c-9.8166504,13.2027893-21.5132446,23.0467834-38.9203491,24.8641357
		c-15.5849609,1.643158-31.3405151,0.2736511-46.4082031-4.033905c-2.9927979-0.8434448-5.9546509-2.1235046-9.5267334,0.0230103
		c4.0565186,6.1080017,10.3539429,7.91922,15.8446655,11.1835938c-7.7312622,8.32547-17.5134888,7.0905457-27.0637817,6.854187
		c-9.3165283-0.2305298-18.0040894-5.1968689-28.7740173-4.9184875c4.4779663,6.2562561,10.7997131,7.1555481,15.1856995,11.3696594
		c-4.9295654,3.3770142-9.8269348,2.292572-14.5589294,1.546875c-12.8406372-2.0235291-24.6478882-7.4590149-36.87677-11.4981995
		c-3.9601746-1.3081055-8.3854065-1.4255066-6.9012756,3.8541565c1.8548584,6.5997314-1.9331055,7.3187561-6.0785522,8.704834
		c-5.2318115,1.6333923-10.6047668,2.7744446-16.0488586,3.4082947c-16.013855,2.2066956-31.1599121-1.6300659-46.0934448-6.3475647
		c-18.4676514-5.8338318-36.6086426-5.9405518-54.9277344,0.5249939
		c-8.7778625,3.2109985-17.9243164,5.3066406-27.2245483,6.2377319
		c-16.1109009,1.4228821-32.3099976,3.1589966-48.0047607-2.8954468c-3.5793762-1.3807373-6.0191956-2.6322327-1.9447937-6.6248779
		c2.7512207-2.6960144,7.7210999-6.105011,5.1758728-9.9588318c-2.0056152-3.0366516-7.1953735-0.0450745-10.8156738,0.8237305
		c-4.7860107,1.1484985-9.4201355,2.944519-14.0979919,4.5259094c-10.3912354,3.5128784-20.6592407,7.4796753-31.537674,9.2814636
		c-5.475174,0.9067993-11.060379,1.6589355-16.7449951-1.9980774c1.5765533-0.8887024,2.5238037-1.3670654,3.4137268-1.9353333
		c2.22258-1.4191589,5.8789978-2.3326111,5.0518341-5.5558472c-0.7728424-3.0112-4.4684753-2.6036682-7.0702362-2.8482666
		c-7.0986023-0.6673279-14.2725372-0.7168274-21.317337-1.7137451c-5.7567902-0.8146667-11.5756378-2.236145-15.7905731-7.4797974
		c1.2740021-0.493988,2.0427551-0.7614746,2.7865143-1.0859985c2.7702332-1.2086487,6.086792-2.2330017,5.730545-6.0346985
		c-0.3887329-4.1477356-4.158493-3.8474121-7.010498-4.1288147c-6.2779999-0.6192322-12.5727539-1.0637512-18.8842468-1.333374
		c-13.6300049-0.6012573-26.5294037-3.4207458-38.4519348-10.5421143
		c-6.7171173-4.0120544-11.8560638-7.6811523-7.0505371-16.5685425c1.4372559-2.6580811,1.842392-6.7507019-2.1274261-8.5928955
		c-3.7922974-1.7598267-7.7593994-1.4793091-10.48909,1.9487c-2.0330963,2.5800476-3.6260681,5.4782104-4.7145996,8.5774231
		c-2.9696198,8.8591003-4.6359863,18.1027527-4.9468384,27.4411316c-0.1599579,4.67276,0.4622192,9.3394165,1.8407898,13.8070679
		c0.5186768,1.7776184,1.3969269,3.9224548,3.7319489,3.7550049c1.9416504-0.1393127,2.2789917-2.1333618,2.6729889-3.7190857
		c1.3214874-5.3200684,2.7231598-10.625,3.8492279-15.9872131c0.9232025-4.3957825,2.6546631-5.5706177,6.6242676-2.7319946
		c12.0813446,8.6392517,26.1235657,12.6176453,40.2357941,16.1746826
		c8.3004608,2.0534973,15.6645203,6.8492432,20.899231,13.6103516c11.9517059,14.7257385,22.6416626,30.342926,33.3915558,45.927887
		c18.9941864,27.5374146,36.9890137,55.7219238,61.0426025,79.509491
		c59.4086304,58.7520752,165.3415222,62.9414063,227.1959229,10.7138672
		c24.0639038-20.3187256,41.5392151-45.820343,58.4277039-71.8983459
		c13.2664795-20.4853516,25.7160034-41.5479431,42.475769-59.5748596c3.6073608-3.8800049,7.1963501-5.9148865,12.7225342-5.6916199
		c22.532959,0.9104309,41.5305176-6.3064575,55.0753784-25.2431946c0.5809326-0.8120728,1.5698242-1.3324585,3.2028198-2.6740112
		c0.4992676,4.0793457,0.8279419,7.3030701,1.3071289,10.5043945c0.3842163,2.5684509-0.4103394,6.570282,2.8338623,6.859436
		c3.5411377,0.3157043,4.2648926-3.7834473,5.1008911-6.5681458
		C660.1102295,365.7737122,655.2816772,352.468811,648.0792847,339.7945557z"/>
	<path d="M285.7298889,142.5516357c21.9263306,0.2055817,39.1278076-16.3644714,39.2730713-37.8314667
		c0.1481628-21.9030914-15.9902344-37.709259-38.7340088-37.9364777
		c-20.7545776-0.2726288-37.8189087,16.2951965-38.1590576,37.0487671
		C247.8765259,124.8849792,264.6793823,142.178772,285.7298889,142.5516357z"/>
	<path d="M443.4445801,141.604187c22.3452454-0.1608276,38.2743835-16.3800049,38.5375061-38.3679962
		c0.2315063-19.3215637-17.7681274-38.9452667-38.0092773-36.666275
		c-22.9941711,0.0228271-38.6495667,15.2177734-38.5939941,37.4592285
		C405.4328918,125.6896057,421.7136536,141.7605743,443.4445801,141.604187z"/>
</g>
</svg>
